# xmcd
#
# Track frame offsets:
#	187
#	9377
#	20812
#	30197
#	44347
#	57450
#	68540
#	80570
#	91972
#	103672
#
# Disc length: 1541
#
# Revision: 2
# Processed by: cddbd v1.5.1PL0 Copyright (c) Steve Scherf et al.
# Submitted via: KiC 2.1 - (C) 1996-1998 Alwin Hoogerdijk
# Normalized: r1:DSETVAR1
#
DISCID=7406030a
DTITLE=Various Artist - Country Hits Of The 50's, Vol 1
DYEAR=1900
DGENRE=
TTITLE0=Patsy Cline - Walking After Midnight
TTITLE1=Red Foley - Mississippi
TTITLE2=Webb Pierce - In The Jailhouse Now
TTITLE3=Ernest Tubb - Missing In Action
TTITLE4=Kitty Wells - Making Believe
TTITLE5=Wilburn Brothers - Somebody's Back In Town
TTITLE6=Warner Mack - Is It Wrong
TTITLE7=Bill Anderson - That's What It's Like To Be Lonesome
TTITLE8=Patsy Cline - A Poor Man's Roses (Or A Rich Man's Gold)
TTITLE9=Ernest Tubb - I Love You Because
EXTD=
EXTT0=
EXTT1=
EXTT2=
EXTT3=
EXTT4=
EXTT5=
EXTT6=
EXTT7=
EXTT8=
EXTT9=
PLAYORDER=
